# xmcd
#
# Track frame offsets: 
#        150
#        18856
#        38585
#        55869
#        74125
#        93992
#        115386
#        130907
#        148790
#        164706
#        185572
#
# Disc length: 2769 seconds
#
# Revision: 0
# Processed by: cddbd v1.5.2PL0 Copyright (c) Steve Scherf et al.
# Submitted via: ExactAudioCopy v0.99pb5
#
DISCID=a10acf0b
DTITLE=Brian McKnight - The Best of Brian McKnight
DYEAR=2006
DGENRE=R&B
TTITLE0=Anytime
TTITLE1=Back At One
TTITLE2=Hold Me
TTITLE3=Crazy Love
TTITLE4=I'll Take Her
TTITLE5=Love Of My Life
TTITLE6=On The Down Low
TTITLE7=Still In Love
TTITLE8=The Only One For Me
TTITLE9=The Way Love Goes
TTITLE10=One Last Cry
EXTD=
EXTT0=
EXTT1=
EXTT2=
EXTT3=
EXTT4=
EXTT5=
EXTT6=
EXTT7=
EXTT8=
EXTT9=
EXTT10=
PLAYORDER=
